<mxfile host="Electron" modified="2023-05-27T15:23:49.851Z" agent="Mozilla/5.0 (Windows NT 10.0; Win64; x64) AppleWebKit/537.36 (KHTML, like Gecko) draw.io/21.1.2 Chrome/106.0.5249.199 Electron/21.4.3 Safari/537.36" etag="3Jn4uz-_NKHpyysQdMNo" version="21.1.2" type="device">
  <diagram id="C5RBs43oDa-KdzZeNtuy" name="Page-1">
    <mxGraphModel dx="1648" dy="723" grid="1" gridSize="10" guides="1" tooltips="1" connect="1" arrows="1" fold="1" page="1" pageScale="1" pageWidth="827" pageHeight="1169" math="0" shadow="0">
      <root>
        <mxCell id="WIyWlLk6GJQsqaUBKTNV-0" />
        <mxCell id="WIyWlLk6GJQsqaUBKTNV-1" parent="WIyWlLk6GJQsqaUBKTNV-0" />
        <mxCell id="G2lNMbWsylCMw-MZikfE-0" value="Exhibit" style="swimlane;fontStyle=1;align=center;verticalAlign=top;childLayout=stackLayout;horizontal=1;startSize=26;horizontalStack=0;resizeParent=1;resizeParentMax=0;resizeLast=0;collapsible=1;marginBottom=0;whiteSpace=wrap;html=1;" parent="WIyWlLk6GJQsqaUBKTNV-1" vertex="1">
          <mxGeometry x="21" y="13" width="220" height="190" as="geometry" />
        </mxCell>
        <mxCell id="G2lNMbWsylCMw-MZikfE-1" value="+ name : String" style="text;strokeColor=none;fillColor=none;align=left;verticalAlign=top;spacingLeft=4;spacingRight=4;overflow=hidden;rotatable=0;points=[[0,0.5],[1,0.5]];portConstraint=eastwest;whiteSpace=wrap;html=1;" parent="G2lNMbWsylCMw-MZikfE-0" vertex="1">
          <mxGeometry y="26" width="220" height="26" as="geometry" />
        </mxCell>
        <mxCell id="G2lNMbWsylCMw-MZikfE-4" value="+ art_form : Art_form" style="text;strokeColor=none;fillColor=none;align=left;verticalAlign=top;spacingLeft=4;spacingRight=4;overflow=hidden;rotatable=0;points=[[0,0.5],[1,0.5]];portConstraint=eastwest;whiteSpace=wrap;html=1;" parent="G2lNMbWsylCMw-MZikfE-0" vertex="1">
          <mxGeometry y="52" width="220" height="26" as="geometry" />
        </mxCell>
        <mxCell id="G2lNMbWsylCMw-MZikfE-5" value="+ admission_date : DateField" style="text;strokeColor=none;fillColor=none;align=left;verticalAlign=top;spacingLeft=4;spacingRight=4;overflow=hidden;rotatable=0;points=[[0,0.5],[1,0.5]];portConstraint=eastwest;whiteSpace=wrap;html=1;" parent="G2lNMbWsylCMw-MZikfE-0" vertex="1">
          <mxGeometry y="78" width="220" height="26" as="geometry" />
        </mxCell>
        <mxCell id="G2lNMbWsylCMw-MZikfE-6" value="+&amp;nbsp;observer : Employee" style="text;strokeColor=none;fillColor=none;align=left;verticalAlign=top;spacingLeft=4;spacingRight=4;overflow=hidden;rotatable=0;points=[[0,0.5],[1,0.5]];portConstraint=eastwest;whiteSpace=wrap;html=1;" parent="G2lNMbWsylCMw-MZikfE-0" vertex="1">
          <mxGeometry y="104" width="220" height="26" as="geometry" />
        </mxCell>
        <mxCell id="G2lNMbWsylCMw-MZikfE-82" value="+ photo: ImageField" style="text;strokeColor=none;fillColor=none;align=left;verticalAlign=top;spacingLeft=4;spacingRight=4;overflow=hidden;rotatable=0;points=[[0,0.5],[1,0.5]];portConstraint=eastwest;whiteSpace=wrap;html=1;" parent="G2lNMbWsylCMw-MZikfE-0" vertex="1">
          <mxGeometry y="130" width="220" height="26" as="geometry" />
        </mxCell>
        <mxCell id="G2lNMbWsylCMw-MZikfE-2" value="" style="line;strokeWidth=1;fillColor=none;align=left;verticalAlign=middle;spacingTop=-1;spacingLeft=3;spacingRight=3;rotatable=0;labelPosition=right;points=[];portConstraint=eastwest;strokeColor=inherit;" parent="G2lNMbWsylCMw-MZikfE-0" vertex="1">
          <mxGeometry y="156" width="220" height="8" as="geometry" />
        </mxCell>
        <mxCell id="G2lNMbWsylCMw-MZikfE-3" value="+ __str__ : String" style="text;strokeColor=none;fillColor=none;align=left;verticalAlign=top;spacingLeft=4;spacingRight=4;overflow=hidden;rotatable=0;points=[[0,0.5],[1,0.5]];portConstraint=eastwest;whiteSpace=wrap;html=1;" parent="G2lNMbWsylCMw-MZikfE-0" vertex="1">
          <mxGeometry y="164" width="220" height="26" as="geometry" />
        </mxCell>
        <mxCell id="G2lNMbWsylCMw-MZikfE-7" value="Employee" style="swimlane;fontStyle=1;align=center;verticalAlign=top;childLayout=stackLayout;horizontal=1;startSize=26;horizontalStack=0;resizeParent=1;resizeParentMax=0;resizeLast=0;collapsible=1;marginBottom=0;whiteSpace=wrap;html=1;" parent="WIyWlLk6GJQsqaUBKTNV-1" vertex="1">
          <mxGeometry x="310" y="186" width="260" height="190" as="geometry" />
        </mxCell>
        <mxCell id="G2lNMbWsylCMw-MZikfE-8" value="+ full_name : String" style="text;strokeColor=none;fillColor=none;align=left;verticalAlign=top;spacingLeft=4;spacingRight=4;overflow=hidden;rotatable=0;points=[[0,0.5],[1,0.5]];portConstraint=eastwest;whiteSpace=wrap;html=1;" parent="G2lNMbWsylCMw-MZikfE-7" vertex="1">
          <mxGeometry y="26" width="260" height="26" as="geometry" />
        </mxCell>
        <mxCell id="G2lNMbWsylCMw-MZikfE-9" value="+ hall : Hall[1]" style="text;strokeColor=none;fillColor=none;align=left;verticalAlign=top;spacingLeft=4;spacingRight=4;overflow=hidden;rotatable=0;points=[[0,0.5],[1,0.5]];portConstraint=eastwest;whiteSpace=wrap;html=1;" parent="G2lNMbWsylCMw-MZikfE-7" vertex="1">
          <mxGeometry y="52" width="260" height="26" as="geometry" />
        </mxCell>
        <mxCell id="G2lNMbWsylCMw-MZikfE-10" value="+ phone_number : String ||&amp;nbsp;PhoneNumberField" style="text;strokeColor=none;fillColor=none;align=left;verticalAlign=top;spacingLeft=4;spacingRight=4;overflow=hidden;rotatable=0;points=[[0,0.5],[1,0.5]];portConstraint=eastwest;whiteSpace=wrap;html=1;" parent="G2lNMbWsylCMw-MZikfE-7" vertex="1">
          <mxGeometry y="78" width="260" height="26" as="geometry" />
        </mxCell>
        <mxCell id="G2lNMbWsylCMw-MZikfE-11" value="+ position : Position[1]" style="text;strokeColor=none;fillColor=none;align=left;verticalAlign=top;spacingLeft=4;spacingRight=4;overflow=hidden;rotatable=0;points=[[0,0.5],[1,0.5]];portConstraint=eastwest;whiteSpace=wrap;html=1;" parent="G2lNMbWsylCMw-MZikfE-7" vertex="1">
          <mxGeometry y="104" width="260" height="26" as="geometry" />
        </mxCell>
        <mxCell id="VQ5_3LUmmQSsxvoUV8Lm-2" value="+ excursion :&amp;nbsp;Excursion[1]" style="text;strokeColor=none;fillColor=none;align=left;verticalAlign=top;spacingLeft=4;spacingRight=4;overflow=hidden;rotatable=0;points=[[0,0.5],[1,0.5]];portConstraint=eastwest;whiteSpace=wrap;html=1;" parent="G2lNMbWsylCMw-MZikfE-7" vertex="1">
          <mxGeometry y="130" width="260" height="26" as="geometry" />
        </mxCell>
        <mxCell id="G2lNMbWsylCMw-MZikfE-12" value="" style="line;strokeWidth=1;fillColor=none;align=left;verticalAlign=middle;spacingTop=-1;spacingLeft=3;spacingRight=3;rotatable=0;labelPosition=right;points=[];portConstraint=eastwest;strokeColor=inherit;" parent="G2lNMbWsylCMw-MZikfE-7" vertex="1">
          <mxGeometry y="156" width="260" height="8" as="geometry" />
        </mxCell>
        <mxCell id="G2lNMbWsylCMw-MZikfE-13" value="+ __str__ : String" style="text;strokeColor=none;fillColor=none;align=left;verticalAlign=top;spacingLeft=4;spacingRight=4;overflow=hidden;rotatable=0;points=[[0,0.5],[1,0.5]];portConstraint=eastwest;whiteSpace=wrap;html=1;" parent="G2lNMbWsylCMw-MZikfE-7" vertex="1">
          <mxGeometry y="164" width="260" height="26" as="geometry" />
        </mxCell>
        <mxCell id="G2lNMbWsylCMw-MZikfE-14" value="Hall" style="swimlane;fontStyle=1;align=center;verticalAlign=top;childLayout=stackLayout;horizontal=1;startSize=26;horizontalStack=0;resizeParent=1;resizeParentMax=0;resizeLast=0;collapsible=1;marginBottom=0;whiteSpace=wrap;html=1;" parent="WIyWlLk6GJQsqaUBKTNV-1" vertex="1">
          <mxGeometry x="60" y="350" width="220" height="164" as="geometry" />
        </mxCell>
        <mxCell id="G2lNMbWsylCMw-MZikfE-16" value="+ number : String" style="text;strokeColor=none;fillColor=none;align=left;verticalAlign=top;spacingLeft=4;spacingRight=4;overflow=hidden;rotatable=0;points=[[0,0.5],[1,0.5]];portConstraint=eastwest;whiteSpace=wrap;html=1;" parent="G2lNMbWsylCMw-MZikfE-14" vertex="1">
          <mxGeometry y="26" width="220" height="26" as="geometry" />
        </mxCell>
        <mxCell id="G2lNMbWsylCMw-MZikfE-15" value="+ name : String" style="text;strokeColor=none;fillColor=none;align=left;verticalAlign=top;spacingLeft=4;spacingRight=4;overflow=hidden;rotatable=0;points=[[0,0.5],[1,0.5]];portConstraint=eastwest;whiteSpace=wrap;html=1;" parent="G2lNMbWsylCMw-MZikfE-14" vertex="1">
          <mxGeometry y="52" width="220" height="26" as="geometry" />
        </mxCell>
        <mxCell id="G2lNMbWsylCMw-MZikfE-17" value="+ floor : String" style="text;strokeColor=none;fillColor=none;align=left;verticalAlign=top;spacingLeft=4;spacingRight=4;overflow=hidden;rotatable=0;points=[[0,0.5],[1,0.5]];portConstraint=eastwest;whiteSpace=wrap;html=1;" parent="G2lNMbWsylCMw-MZikfE-14" vertex="1">
          <mxGeometry y="78" width="220" height="26" as="geometry" />
        </mxCell>
        <mxCell id="G2lNMbWsylCMw-MZikfE-18" value="+&amp;nbsp;area : Int" style="text;strokeColor=none;fillColor=none;align=left;verticalAlign=top;spacingLeft=4;spacingRight=4;overflow=hidden;rotatable=0;points=[[0,0.5],[1,0.5]];portConstraint=eastwest;whiteSpace=wrap;html=1;" parent="G2lNMbWsylCMw-MZikfE-14" vertex="1">
          <mxGeometry y="104" width="220" height="26" as="geometry" />
        </mxCell>
        <mxCell id="G2lNMbWsylCMw-MZikfE-19" value="" style="line;strokeWidth=1;fillColor=none;align=left;verticalAlign=middle;spacingTop=-1;spacingLeft=3;spacingRight=3;rotatable=0;labelPosition=right;points=[];portConstraint=eastwest;strokeColor=inherit;" parent="G2lNMbWsylCMw-MZikfE-14" vertex="1">
          <mxGeometry y="130" width="220" height="8" as="geometry" />
        </mxCell>
        <mxCell id="G2lNMbWsylCMw-MZikfE-20" value="+ __str__ : String" style="text;strokeColor=none;fillColor=none;align=left;verticalAlign=top;spacingLeft=4;spacingRight=4;overflow=hidden;rotatable=0;points=[[0,0.5],[1,0.5]];portConstraint=eastwest;whiteSpace=wrap;html=1;" parent="G2lNMbWsylCMw-MZikfE-14" vertex="1">
          <mxGeometry y="138" width="220" height="26" as="geometry" />
        </mxCell>
        <mxCell id="G2lNMbWsylCMw-MZikfE-21" value="Excursion" style="swimlane;fontStyle=1;align=center;verticalAlign=top;childLayout=stackLayout;horizontal=1;startSize=26;horizontalStack=0;resizeParent=1;resizeParentMax=0;resizeLast=0;collapsible=1;marginBottom=0;whiteSpace=wrap;html=1;" parent="WIyWlLk6GJQsqaUBKTNV-1" vertex="1">
          <mxGeometry x="620" y="387" width="220" height="190" as="geometry" />
        </mxCell>
        <mxCell id="G2lNMbWsylCMw-MZikfE-22" value="+ excursion_code : String" style="text;strokeColor=none;fillColor=none;align=left;verticalAlign=top;spacingLeft=4;spacingRight=4;overflow=hidden;rotatable=0;points=[[0,0.5],[1,0.5]];portConstraint=eastwest;whiteSpace=wrap;html=1;" parent="G2lNMbWsylCMw-MZikfE-21" vertex="1">
          <mxGeometry y="26" width="220" height="26" as="geometry" />
        </mxCell>
        <mxCell id="G2lNMbWsylCMw-MZikfE-23" value="+ name : String" style="text;strokeColor=none;fillColor=none;align=left;verticalAlign=top;spacingLeft=4;spacingRight=4;overflow=hidden;rotatable=0;points=[[0,0.5],[1,0.5]];portConstraint=eastwest;whiteSpace=wrap;html=1;" parent="G2lNMbWsylCMw-MZikfE-21" vertex="1">
          <mxGeometry y="52" width="220" height="26" as="geometry" />
        </mxCell>
        <mxCell id="G2lNMbWsylCMw-MZikfE-24" value="+ date : DateField" style="text;strokeColor=none;fillColor=none;align=left;verticalAlign=top;spacingLeft=4;spacingRight=4;overflow=hidden;rotatable=0;points=[[0,0.5],[1,0.5]];portConstraint=eastwest;whiteSpace=wrap;html=1;" parent="G2lNMbWsylCMw-MZikfE-21" vertex="1">
          <mxGeometry y="78" width="220" height="26" as="geometry" />
        </mxCell>
        <mxCell id="G2lNMbWsylCMw-MZikfE-25" value="+ group_amount : Int" style="text;strokeColor=none;fillColor=none;align=left;verticalAlign=top;spacingLeft=4;spacingRight=4;overflow=hidden;rotatable=0;points=[[0,0.5],[1,0.5]];portConstraint=eastwest;whiteSpace=wrap;html=1;" parent="G2lNMbWsylCMw-MZikfE-21" vertex="1">
          <mxGeometry y="104" width="220" height="26" as="geometry" />
        </mxCell>
        <mxCell id="G2lNMbWsylCMw-MZikfE-103" value="+ guide : Employee[1]" style="text;strokeColor=none;fillColor=none;align=left;verticalAlign=top;spacingLeft=4;spacingRight=4;overflow=hidden;rotatable=0;points=[[0,0.5],[1,0.5]];portConstraint=eastwest;whiteSpace=wrap;html=1;" parent="G2lNMbWsylCMw-MZikfE-21" vertex="1">
          <mxGeometry y="130" width="220" height="26" as="geometry" />
        </mxCell>
        <mxCell id="G2lNMbWsylCMw-MZikfE-26" value="" style="line;strokeWidth=1;fillColor=none;align=left;verticalAlign=middle;spacingTop=-1;spacingLeft=3;spacingRight=3;rotatable=0;labelPosition=right;points=[];portConstraint=eastwest;strokeColor=inherit;" parent="G2lNMbWsylCMw-MZikfE-21" vertex="1">
          <mxGeometry y="156" width="220" height="8" as="geometry" />
        </mxCell>
        <mxCell id="G2lNMbWsylCMw-MZikfE-27" value="+ __str__ : String" style="text;strokeColor=none;fillColor=none;align=left;verticalAlign=top;spacingLeft=4;spacingRight=4;overflow=hidden;rotatable=0;points=[[0,0.5],[1,0.5]];portConstraint=eastwest;whiteSpace=wrap;html=1;" parent="G2lNMbWsylCMw-MZikfE-21" vertex="1">
          <mxGeometry y="164" width="220" height="26" as="geometry" />
        </mxCell>
        <mxCell id="G2lNMbWsylCMw-MZikfE-28" value="ArtForm" style="swimlane;fontStyle=1;align=center;verticalAlign=top;childLayout=stackLayout;horizontal=1;startSize=26;horizontalStack=0;resizeParent=1;resizeParentMax=0;resizeLast=0;collapsible=1;marginBottom=0;whiteSpace=wrap;html=1;" parent="WIyWlLk6GJQsqaUBKTNV-1" vertex="1">
          <mxGeometry x="480" y="35" width="220" height="86" as="geometry" />
        </mxCell>
        <mxCell id="G2lNMbWsylCMw-MZikfE-29" value="+ name : String" style="text;strokeColor=none;fillColor=none;align=left;verticalAlign=top;spacingLeft=4;spacingRight=4;overflow=hidden;rotatable=0;points=[[0,0.5],[1,0.5]];portConstraint=eastwest;whiteSpace=wrap;html=1;" parent="G2lNMbWsylCMw-MZikfE-28" vertex="1">
          <mxGeometry y="26" width="220" height="26" as="geometry" />
        </mxCell>
        <mxCell id="G2lNMbWsylCMw-MZikfE-33" value="" style="line;strokeWidth=1;fillColor=none;align=left;verticalAlign=middle;spacingTop=-1;spacingLeft=3;spacingRight=3;rotatable=0;labelPosition=right;points=[];portConstraint=eastwest;strokeColor=inherit;" parent="G2lNMbWsylCMw-MZikfE-28" vertex="1">
          <mxGeometry y="52" width="220" height="8" as="geometry" />
        </mxCell>
        <mxCell id="G2lNMbWsylCMw-MZikfE-34" value="+ __str__ : String" style="text;strokeColor=none;fillColor=none;align=left;verticalAlign=top;spacingLeft=4;spacingRight=4;overflow=hidden;rotatable=0;points=[[0,0.5],[1,0.5]];portConstraint=eastwest;whiteSpace=wrap;html=1;" parent="G2lNMbWsylCMw-MZikfE-28" vertex="1">
          <mxGeometry y="60" width="220" height="26" as="geometry" />
        </mxCell>
        <mxCell id="G2lNMbWsylCMw-MZikfE-35" value="Position" style="swimlane;fontStyle=1;align=center;verticalAlign=top;childLayout=stackLayout;horizontal=1;startSize=26;horizontalStack=0;resizeParent=1;resizeParentMax=0;resizeLast=0;collapsible=1;marginBottom=0;whiteSpace=wrap;html=1;" parent="WIyWlLk6GJQsqaUBKTNV-1" vertex="1">
          <mxGeometry x="640" y="160" width="220" height="82" as="geometry" />
        </mxCell>
        <mxCell id="G2lNMbWsylCMw-MZikfE-37" value="+ name : String" style="text;strokeColor=none;fillColor=none;align=left;verticalAlign=top;spacingLeft=4;spacingRight=4;overflow=hidden;rotatable=0;points=[[0,0.5],[1,0.5]];portConstraint=eastwest;whiteSpace=wrap;html=1;" parent="G2lNMbWsylCMw-MZikfE-35" vertex="1">
          <mxGeometry y="26" width="220" height="22" as="geometry" />
        </mxCell>
        <mxCell id="G2lNMbWsylCMw-MZikfE-40" value="" style="line;strokeWidth=1;fillColor=none;align=left;verticalAlign=middle;spacingTop=-1;spacingLeft=3;spacingRight=3;rotatable=0;labelPosition=right;points=[];portConstraint=eastwest;strokeColor=inherit;" parent="G2lNMbWsylCMw-MZikfE-35" vertex="1">
          <mxGeometry y="48" width="220" height="8" as="geometry" />
        </mxCell>
        <mxCell id="G2lNMbWsylCMw-MZikfE-41" value="+ __str__ : String" style="text;strokeColor=none;fillColor=none;align=left;verticalAlign=top;spacingLeft=4;spacingRight=4;overflow=hidden;rotatable=0;points=[[0,0.5],[1,0.5]];portConstraint=eastwest;whiteSpace=wrap;html=1;" parent="G2lNMbWsylCMw-MZikfE-35" vertex="1">
          <mxGeometry y="56" width="220" height="26" as="geometry" />
        </mxCell>
        <mxCell id="G2lNMbWsylCMw-MZikfE-42" value="" style="endArrow=none;html=1;rounded=0;exitX=1;exitY=0.5;exitDx=0;exitDy=0;" parent="WIyWlLk6GJQsqaUBKTNV-1" source="G2lNMbWsylCMw-MZikfE-11" target="G2lNMbWsylCMw-MZikfE-35" edge="1">
          <mxGeometry width="50" height="50" relative="1" as="geometry">
            <mxPoint x="640" y="230" as="sourcePoint" />
            <mxPoint x="690" y="180" as="targetPoint" />
            <Array as="points">
              <mxPoint x="750" y="303" />
            </Array>
          </mxGeometry>
        </mxCell>
        <mxCell id="G2lNMbWsylCMw-MZikfE-44" value="1" style="edgeLabel;html=1;align=center;verticalAlign=middle;resizable=0;points=[];" parent="G2lNMbWsylCMw-MZikfE-42" vertex="1" connectable="0">
          <mxGeometry x="0.6342" y="1" relative="1" as="geometry">
            <mxPoint x="11" y="-32" as="offset" />
          </mxGeometry>
        </mxCell>
        <mxCell id="G2lNMbWsylCMw-MZikfE-45" value="" style="endArrow=none;html=1;rounded=0;entryX=0;entryY=0.5;entryDx=0;entryDy=0;exitX=0.5;exitY=0;exitDx=0;exitDy=0;" parent="WIyWlLk6GJQsqaUBKTNV-1" source="G2lNMbWsylCMw-MZikfE-14" target="G2lNMbWsylCMw-MZikfE-9" edge="1">
          <mxGeometry width="50" height="50" relative="1" as="geometry">
            <mxPoint x="60" y="320" as="sourcePoint" />
            <mxPoint x="110" y="270" as="targetPoint" />
            <Array as="points">
              <mxPoint x="170" y="250" />
            </Array>
          </mxGeometry>
        </mxCell>
        <mxCell id="G2lNMbWsylCMw-MZikfE-49" value="1" style="edgeLabel;html=1;align=center;verticalAlign=middle;resizable=0;points=[];" parent="G2lNMbWsylCMw-MZikfE-45" vertex="1" connectable="0">
          <mxGeometry x="-0.9147" y="1" relative="1" as="geometry">
            <mxPoint x="11" as="offset" />
          </mxGeometry>
        </mxCell>
        <mxCell id="G2lNMbWsylCMw-MZikfE-50" value="" style="endArrow=none;html=1;rounded=0;exitX=1;exitY=0.5;exitDx=0;exitDy=0;" parent="WIyWlLk6GJQsqaUBKTNV-1" source="G2lNMbWsylCMw-MZikfE-6" target="G2lNMbWsylCMw-MZikfE-7" edge="1">
          <mxGeometry width="50" height="50" relative="1" as="geometry">
            <mxPoint x="370" y="130" as="sourcePoint" />
            <mxPoint x="420" y="80" as="targetPoint" />
            <Array as="points">
              <mxPoint x="440" y="130" />
            </Array>
          </mxGeometry>
        </mxCell>
        <mxCell id="G2lNMbWsylCMw-MZikfE-101" value="1..*" style="edgeLabel;html=1;align=center;verticalAlign=middle;resizable=0;points=[];" parent="G2lNMbWsylCMw-MZikfE-50" vertex="1" connectable="0">
          <mxGeometry x="-0.9239" y="1" relative="1" as="geometry">
            <mxPoint y="-8" as="offset" />
          </mxGeometry>
        </mxCell>
        <mxCell id="G2lNMbWsylCMw-MZikfE-102" value="1" style="edgeLabel;html=1;align=center;verticalAlign=middle;resizable=0;points=[];" parent="G2lNMbWsylCMw-MZikfE-50" vertex="1" connectable="0">
          <mxGeometry x="0.9202" relative="1" as="geometry">
            <mxPoint x="10" as="offset" />
          </mxGeometry>
        </mxCell>
        <mxCell id="G2lNMbWsylCMw-MZikfE-51" value="" style="endArrow=none;html=1;rounded=0;exitX=1;exitY=0.5;exitDx=0;exitDy=0;" parent="WIyWlLk6GJQsqaUBKTNV-1" source="G2lNMbWsylCMw-MZikfE-4" target="G2lNMbWsylCMw-MZikfE-28" edge="1">
          <mxGeometry width="50" height="50" relative="1" as="geometry">
            <mxPoint x="390" y="90" as="sourcePoint" />
            <mxPoint x="440" y="40" as="targetPoint" />
          </mxGeometry>
        </mxCell>
        <mxCell id="G2lNMbWsylCMw-MZikfE-52" value="1..*" style="edgeLabel;html=1;align=center;verticalAlign=middle;resizable=0;points=[];" parent="G2lNMbWsylCMw-MZikfE-51" vertex="1" connectable="0">
          <mxGeometry x="0.9009" relative="1" as="geometry">
            <mxPoint x="-8" y="-9" as="offset" />
          </mxGeometry>
        </mxCell>
        <mxCell id="G2lNMbWsylCMw-MZikfE-54" value="Exposition" style="swimlane;fontStyle=1;align=center;verticalAlign=top;childLayout=stackLayout;horizontal=1;startSize=26;horizontalStack=0;resizeParent=1;resizeParentMax=0;resizeLast=0;collapsible=1;marginBottom=0;whiteSpace=wrap;html=1;" parent="WIyWlLk6GJQsqaUBKTNV-1" vertex="1">
          <mxGeometry x="-320" y="43" width="160" height="164" as="geometry" />
        </mxCell>
        <mxCell id="G2lNMbWsylCMw-MZikfE-69" value="+ name : String" style="text;strokeColor=none;fillColor=none;align=left;verticalAlign=top;spacingLeft=4;spacingRight=4;overflow=hidden;rotatable=0;points=[[0,0.5],[1,0.5]];portConstraint=eastwest;whiteSpace=wrap;html=1;" parent="G2lNMbWsylCMw-MZikfE-54" vertex="1">
          <mxGeometry y="26" width="160" height="26" as="geometry" />
        </mxCell>
        <mxCell id="G2lNMbWsylCMw-MZikfE-83" value="+ exhibit :&amp;nbsp;Exhibit[1..*]" style="text;strokeColor=none;fillColor=none;align=left;verticalAlign=top;spacingLeft=4;spacingRight=4;overflow=hidden;rotatable=0;points=[[0,0.5],[1,0.5]];portConstraint=eastwest;whiteSpace=wrap;html=1;" parent="G2lNMbWsylCMw-MZikfE-54" vertex="1">
          <mxGeometry y="52" width="160" height="26" as="geometry" />
        </mxCell>
        <mxCell id="G2lNMbWsylCMw-MZikfE-74" value="+ theme : Theme[1..*]" style="text;strokeColor=none;fillColor=none;align=left;verticalAlign=top;spacingLeft=4;spacingRight=4;overflow=hidden;rotatable=0;points=[[0,0.5],[1,0.5]];portConstraint=eastwest;whiteSpace=wrap;html=1;" parent="G2lNMbWsylCMw-MZikfE-54" vertex="1">
          <mxGeometry y="78" width="160" height="26" as="geometry" />
        </mxCell>
        <mxCell id="G2lNMbWsylCMw-MZikfE-70" value="+ hall : Hall[1..*]" style="text;strokeColor=none;fillColor=none;align=left;verticalAlign=top;spacingLeft=4;spacingRight=4;overflow=hidden;rotatable=0;points=[[0,0.5],[1,0.5]];portConstraint=eastwest;whiteSpace=wrap;html=1;" parent="G2lNMbWsylCMw-MZikfE-54" vertex="1">
          <mxGeometry y="104" width="160" height="26" as="geometry" />
        </mxCell>
        <mxCell id="G2lNMbWsylCMw-MZikfE-56" value="" style="line;strokeWidth=1;fillColor=none;align=left;verticalAlign=middle;spacingTop=-1;spacingLeft=3;spacingRight=3;rotatable=0;labelPosition=right;points=[];portConstraint=eastwest;strokeColor=inherit;" parent="G2lNMbWsylCMw-MZikfE-54" vertex="1">
          <mxGeometry y="130" width="160" height="8" as="geometry" />
        </mxCell>
        <mxCell id="G2lNMbWsylCMw-MZikfE-81" value="+ __str__ : String" style="text;strokeColor=none;fillColor=none;align=left;verticalAlign=top;spacingLeft=4;spacingRight=4;overflow=hidden;rotatable=0;points=[[0,0.5],[1,0.5]];portConstraint=eastwest;whiteSpace=wrap;html=1;" parent="G2lNMbWsylCMw-MZikfE-54" vertex="1">
          <mxGeometry y="138" width="160" height="26" as="geometry" />
        </mxCell>
        <mxCell id="G2lNMbWsylCMw-MZikfE-58" value="Exhibition" style="swimlane;fontStyle=1;align=center;verticalAlign=top;childLayout=stackLayout;horizontal=1;startSize=26;horizontalStack=0;resizeParent=1;resizeParentMax=0;resizeLast=0;collapsible=1;marginBottom=0;whiteSpace=wrap;html=1;" parent="WIyWlLk6GJQsqaUBKTNV-1" vertex="1">
          <mxGeometry x="-320" y="256" width="160" height="190" as="geometry" />
        </mxCell>
        <mxCell id="G2lNMbWsylCMw-MZikfE-71" value="+ name : String" style="text;strokeColor=none;fillColor=none;align=left;verticalAlign=top;spacingLeft=4;spacingRight=4;overflow=hidden;rotatable=0;points=[[0,0.5],[1,0.5]];portConstraint=eastwest;whiteSpace=wrap;html=1;" parent="G2lNMbWsylCMw-MZikfE-58" vertex="1">
          <mxGeometry y="26" width="160" height="26" as="geometry" />
        </mxCell>
        <mxCell id="G2lNMbWsylCMw-MZikfE-85" value="+ exhibit :&amp;nbsp;Exhibit[1..*]" style="text;strokeColor=none;fillColor=none;align=left;verticalAlign=top;spacingLeft=4;spacingRight=4;overflow=hidden;rotatable=0;points=[[0,0.5],[1,0.5]];portConstraint=eastwest;whiteSpace=wrap;html=1;" parent="G2lNMbWsylCMw-MZikfE-58" vertex="1">
          <mxGeometry y="52" width="160" height="26" as="geometry" />
        </mxCell>
        <mxCell id="G2lNMbWsylCMw-MZikfE-73" value="+ date : DateField" style="text;strokeColor=none;fillColor=none;align=left;verticalAlign=top;spacingLeft=4;spacingRight=4;overflow=hidden;rotatable=0;points=[[0,0.5],[1,0.5]];portConstraint=eastwest;whiteSpace=wrap;html=1;" parent="G2lNMbWsylCMw-MZikfE-58" vertex="1">
          <mxGeometry y="78" width="160" height="26" as="geometry" />
        </mxCell>
        <mxCell id="G2lNMbWsylCMw-MZikfE-75" value="+ theme : Theme[1..*]" style="text;strokeColor=none;fillColor=none;align=left;verticalAlign=top;spacingLeft=4;spacingRight=4;overflow=hidden;rotatable=0;points=[[0,0.5],[1,0.5]];portConstraint=eastwest;whiteSpace=wrap;html=1;" parent="G2lNMbWsylCMw-MZikfE-58" vertex="1">
          <mxGeometry y="104" width="160" height="26" as="geometry" />
        </mxCell>
        <mxCell id="G2lNMbWsylCMw-MZikfE-72" value="+ hall : Hall[1..*]" style="text;strokeColor=none;fillColor=none;align=left;verticalAlign=top;spacingLeft=4;spacingRight=4;overflow=hidden;rotatable=0;points=[[0,0.5],[1,0.5]];portConstraint=eastwest;whiteSpace=wrap;html=1;" parent="G2lNMbWsylCMw-MZikfE-58" vertex="1">
          <mxGeometry y="130" width="160" height="26" as="geometry" />
        </mxCell>
        <mxCell id="G2lNMbWsylCMw-MZikfE-60" value="" style="line;strokeWidth=1;fillColor=none;align=left;verticalAlign=middle;spacingTop=-1;spacingLeft=3;spacingRight=3;rotatable=0;labelPosition=right;points=[];portConstraint=eastwest;strokeColor=inherit;" parent="G2lNMbWsylCMw-MZikfE-58" vertex="1">
          <mxGeometry y="156" width="160" height="8" as="geometry" />
        </mxCell>
        <mxCell id="G2lNMbWsylCMw-MZikfE-63" value="+ __str__ : String" style="text;strokeColor=none;fillColor=none;align=left;verticalAlign=top;spacingLeft=4;spacingRight=4;overflow=hidden;rotatable=0;points=[[0,0.5],[1,0.5]];portConstraint=eastwest;whiteSpace=wrap;html=1;" parent="G2lNMbWsylCMw-MZikfE-58" vertex="1">
          <mxGeometry y="164" width="160" height="26" as="geometry" />
        </mxCell>
        <mxCell id="G2lNMbWsylCMw-MZikfE-76" value="Theme" style="swimlane;fontStyle=1;align=center;verticalAlign=top;childLayout=stackLayout;horizontal=1;startSize=26;horizontalStack=0;resizeParent=1;resizeParentMax=0;resizeLast=0;collapsible=1;marginBottom=0;whiteSpace=wrap;html=1;" parent="WIyWlLk6GJQsqaUBKTNV-1" vertex="1">
          <mxGeometry x="-640" y="198" width="160" height="86" as="geometry" />
        </mxCell>
        <mxCell id="G2lNMbWsylCMw-MZikfE-80" value="+ name : String" style="text;strokeColor=none;fillColor=none;align=left;verticalAlign=top;spacingLeft=4;spacingRight=4;overflow=hidden;rotatable=0;points=[[0,0.5],[1,0.5]];portConstraint=eastwest;whiteSpace=wrap;html=1;" parent="G2lNMbWsylCMw-MZikfE-76" vertex="1">
          <mxGeometry y="26" width="160" height="26" as="geometry" />
        </mxCell>
        <mxCell id="G2lNMbWsylCMw-MZikfE-78" value="" style="line;strokeWidth=1;fillColor=none;align=left;verticalAlign=middle;spacingTop=-1;spacingLeft=3;spacingRight=3;rotatable=0;labelPosition=right;points=[];portConstraint=eastwest;strokeColor=inherit;" parent="G2lNMbWsylCMw-MZikfE-76" vertex="1">
          <mxGeometry y="52" width="160" height="8" as="geometry" />
        </mxCell>
        <mxCell id="G2lNMbWsylCMw-MZikfE-62" value="+ __str__ : String" style="text;strokeColor=none;fillColor=none;align=left;verticalAlign=top;spacingLeft=4;spacingRight=4;overflow=hidden;rotatable=0;points=[[0,0.5],[1,0.5]];portConstraint=eastwest;whiteSpace=wrap;html=1;" parent="G2lNMbWsylCMw-MZikfE-76" vertex="1">
          <mxGeometry y="60" width="160" height="26" as="geometry" />
        </mxCell>
        <mxCell id="G2lNMbWsylCMw-MZikfE-86" value="" style="endArrow=none;html=1;rounded=0;exitX=1;exitY=0.5;exitDx=0;exitDy=0;" parent="WIyWlLk6GJQsqaUBKTNV-1" source="G2lNMbWsylCMw-MZikfE-85" target="G2lNMbWsylCMw-MZikfE-0" edge="1">
          <mxGeometry width="50" height="50" relative="1" as="geometry">
            <mxPoint x="-70" y="280" as="sourcePoint" />
            <mxPoint x="-20" y="230" as="targetPoint" />
            <Array as="points">
              <mxPoint x="130" y="320" />
            </Array>
          </mxGeometry>
        </mxCell>
        <mxCell id="G2lNMbWsylCMw-MZikfE-95" value="1..*" style="edgeLabel;html=1;align=center;verticalAlign=middle;resizable=0;points=[];" parent="G2lNMbWsylCMw-MZikfE-86" vertex="1" connectable="0">
          <mxGeometry x="0.9607" relative="1" as="geometry">
            <mxPoint x="10" y="1" as="offset" />
          </mxGeometry>
        </mxCell>
        <mxCell id="G2lNMbWsylCMw-MZikfE-87" value="" style="endArrow=none;html=1;rounded=0;exitX=1;exitY=0.5;exitDx=0;exitDy=0;" parent="WIyWlLk6GJQsqaUBKTNV-1" source="G2lNMbWsylCMw-MZikfE-83" target="G2lNMbWsylCMw-MZikfE-0" edge="1">
          <mxGeometry width="50" height="50" relative="1" as="geometry">
            <mxPoint x="-70" y="100" as="sourcePoint" />
            <mxPoint x="-20" y="50" as="targetPoint" />
          </mxGeometry>
        </mxCell>
        <mxCell id="G2lNMbWsylCMw-MZikfE-94" value="1..*" style="edgeLabel;html=1;align=center;verticalAlign=middle;resizable=0;points=[];" parent="G2lNMbWsylCMw-MZikfE-87" vertex="1" connectable="0">
          <mxGeometry x="0.8351" relative="1" as="geometry">
            <mxPoint y="-13" as="offset" />
          </mxGeometry>
        </mxCell>
        <mxCell id="G2lNMbWsylCMw-MZikfE-90" value="" style="endArrow=none;html=1;rounded=0;exitX=1;exitY=0.5;exitDx=0;exitDy=0;entryX=-0.007;entryY=0.069;entryDx=0;entryDy=0;entryPerimeter=0;" parent="WIyWlLk6GJQsqaUBKTNV-1" source="G2lNMbWsylCMw-MZikfE-70" target="G2lNMbWsylCMw-MZikfE-14" edge="1">
          <mxGeometry width="50" height="50" relative="1" as="geometry">
            <mxPoint x="-100" y="90" as="sourcePoint" />
            <mxPoint x="20" y="440" as="targetPoint" />
            <Array as="points">
              <mxPoint x="-80" y="160" />
              <mxPoint x="-80" y="361" />
            </Array>
          </mxGeometry>
        </mxCell>
        <mxCell id="G2lNMbWsylCMw-MZikfE-92" value="1..*" style="edgeLabel;html=1;align=center;verticalAlign=middle;resizable=0;points=[];" parent="G2lNMbWsylCMw-MZikfE-90" vertex="1" connectable="0">
          <mxGeometry x="0.9665" relative="1" as="geometry">
            <mxPoint x="-12" y="-11" as="offset" />
          </mxGeometry>
        </mxCell>
        <mxCell id="G2lNMbWsylCMw-MZikfE-91" value="" style="endArrow=none;html=1;rounded=0;exitX=1;exitY=0.5;exitDx=0;exitDy=0;entryX=0.001;entryY=0.944;entryDx=0;entryDy=0;entryPerimeter=0;" parent="WIyWlLk6GJQsqaUBKTNV-1" source="G2lNMbWsylCMw-MZikfE-72" target="G2lNMbWsylCMw-MZikfE-16" edge="1">
          <mxGeometry width="50" height="50" relative="1" as="geometry">
            <mxPoint x="-100" y="380" as="sourcePoint" />
            <mxPoint x="-50" y="330" as="targetPoint" />
          </mxGeometry>
        </mxCell>
        <mxCell id="G2lNMbWsylCMw-MZikfE-93" value="1..*" style="edgeLabel;html=1;align=center;verticalAlign=middle;resizable=0;points=[];" parent="G2lNMbWsylCMw-MZikfE-91" vertex="1" connectable="0">
          <mxGeometry x="0.9022" y="1" relative="1" as="geometry">
            <mxPoint x="-10" y="-10" as="offset" />
          </mxGeometry>
        </mxCell>
        <mxCell id="G2lNMbWsylCMw-MZikfE-97" value="" style="endArrow=none;html=1;rounded=0;entryX=0;entryY=0.5;entryDx=0;entryDy=0;exitX=1;exitY=0.25;exitDx=0;exitDy=0;" parent="WIyWlLk6GJQsqaUBKTNV-1" source="G2lNMbWsylCMw-MZikfE-76" target="G2lNMbWsylCMw-MZikfE-74" edge="1">
          <mxGeometry width="50" height="50" relative="1" as="geometry">
            <mxPoint x="-470" y="160" as="sourcePoint" />
            <mxPoint x="-420" y="110" as="targetPoint" />
            <Array as="points">
              <mxPoint x="-430" y="220" />
              <mxPoint x="-430" y="134" />
            </Array>
          </mxGeometry>
        </mxCell>
        <mxCell id="G2lNMbWsylCMw-MZikfE-100" value="1..*" style="edgeLabel;html=1;align=center;verticalAlign=middle;resizable=0;points=[];" parent="G2lNMbWsylCMw-MZikfE-97" vertex="1" connectable="0">
          <mxGeometry x="-0.9011" relative="1" as="geometry">
            <mxPoint y="-8" as="offset" />
          </mxGeometry>
        </mxCell>
        <mxCell id="G2lNMbWsylCMw-MZikfE-98" value="" style="endArrow=none;html=1;rounded=0;entryX=0;entryY=0.5;entryDx=0;entryDy=0;exitX=1;exitY=0.5;exitDx=0;exitDy=0;" parent="WIyWlLk6GJQsqaUBKTNV-1" source="G2lNMbWsylCMw-MZikfE-62" target="G2lNMbWsylCMw-MZikfE-75" edge="1">
          <mxGeometry width="50" height="50" relative="1" as="geometry">
            <mxPoint x="-450" y="410" as="sourcePoint" />
            <mxPoint x="-400" y="360" as="targetPoint" />
            <Array as="points">
              <mxPoint x="-430" y="271" />
              <mxPoint x="-430" y="373" />
            </Array>
          </mxGeometry>
        </mxCell>
        <mxCell id="G2lNMbWsylCMw-MZikfE-99" value="1..*" style="edgeLabel;html=1;align=center;verticalAlign=middle;resizable=0;points=[];" parent="G2lNMbWsylCMw-MZikfE-98" vertex="1" connectable="0">
          <mxGeometry x="-0.923" y="2" relative="1" as="geometry">
            <mxPoint y="-5" as="offset" />
          </mxGeometry>
        </mxCell>
        <mxCell id="G2lNMbWsylCMw-MZikfE-104" value="" style="endArrow=none;html=1;rounded=0;entryX=0;entryY=0.5;entryDx=0;entryDy=0;" parent="WIyWlLk6GJQsqaUBKTNV-1" source="G2lNMbWsylCMw-MZikfE-7" target="G2lNMbWsylCMw-MZikfE-103" edge="1">
          <mxGeometry width="50" height="50" relative="1" as="geometry">
            <mxPoint x="460" y="430" as="sourcePoint" />
            <mxPoint x="510" y="380" as="targetPoint" />
            <Array as="points">
              <mxPoint x="440" y="530" />
            </Array>
          </mxGeometry>
        </mxCell>
        <mxCell id="G2lNMbWsylCMw-MZikfE-105" value="1" style="edgeLabel;html=1;align=center;verticalAlign=middle;resizable=0;points=[];" parent="G2lNMbWsylCMw-MZikfE-104" vertex="1" connectable="0">
          <mxGeometry x="-0.9366" relative="1" as="geometry">
            <mxPoint x="10" y="-1" as="offset" />
          </mxGeometry>
        </mxCell>
        <mxCell id="VQ5_3LUmmQSsxvoUV8Lm-1" value="1" style="edgeLabel;html=1;align=center;verticalAlign=middle;resizable=0;points=[];" parent="WIyWlLk6GJQsqaUBKTNV-1" vertex="1" connectable="0">
          <mxGeometry x="610" y="519.9985714285715" as="geometry" />
        </mxCell>
        <mxCell id="G8z24iZrs90mAZDUPETJ-0" value="" style="endArrow=none;html=1;rounded=0;exitX=0.091;exitY=-0.012;exitDx=0;exitDy=0;exitPerimeter=0;entryX=0.264;entryY=1;entryDx=0;entryDy=0;entryPerimeter=0;" edge="1" parent="WIyWlLk6GJQsqaUBKTNV-1" source="G2lNMbWsylCMw-MZikfE-14" target="G2lNMbWsylCMw-MZikfE-3">
          <mxGeometry width="50" height="50" relative="1" as="geometry">
            <mxPoint x="-20" y="300" as="sourcePoint" />
            <mxPoint x="30" y="250" as="targetPoint" />
          </mxGeometry>
        </mxCell>
        <mxCell id="G8z24iZrs90mAZDUPETJ-2" value="1" style="edgeLabel;html=1;align=center;verticalAlign=middle;resizable=0;points=[];" vertex="1" connectable="0" parent="G8z24iZrs90mAZDUPETJ-0">
          <mxGeometry x="-0.8481" y="-2" relative="1" as="geometry">
            <mxPoint x="8" y="3" as="offset" />
          </mxGeometry>
        </mxCell>
      </root>
    </mxGraphModel>
  </diagram>
</mxfile>
